#N canvas 130 49 997 466 10;
#N canvas 345 128 1017 500 formantfinder 1;
#X obj 20 19 inlet~;
#X obj 19 143 rfft~;
#X obj 18 166 framp~;
#X obj 18 203 log~;
#X obj 17 278 framp~;
#X obj 91 199 print~ frequencies;
#X obj 97 170 bng 15 250 50 0 empty empty empty 17 7 0 10 -262144 -1
-1;
#X obj 301 62 hip~ 200;
#X obj 415 93 lop~ 2400;
#X obj 289 205 /;
#X obj 464 209 /;
#X floatatom 289 280 5 0 0 0 - - -;
#X floatatom 465 272 5 0 0 0 - - -;
#X floatatom 345 280 5 0 0 0 - - -;
#X floatatom 513 248 5 0 0 0 - - -;
#X obj 482 301 *;
#X obj 310 310 *;
#X floatatom 312 335 5 0 0 0 - - -;
#X floatatom 482 335 5 0 0 0 - - -;
#X obj 300 94 lop~ 850;
#X msg 253 395 relative;
#X msg 428 395 relative;
#X obj 320 367 t b f;
#X obj 473 366 t b f;
#X obj 17 313 rfft~;
#X obj 942 285 osc~;
#X obj 942 237 samplerate~;
#X obj 942 308 *~ -0.5;
#X obj 942 331 +~ 0.5;
#X obj 930 214 bng 15 250 50 0 empty empty empty 0 -6 0 8 -262144 -1
-1;
#X obj 930 356 tabwrite~ \$0-Hanning;
#X obj 942 261 /;
#X obj 930 166 t b f;
#X text 961 209 Create Hanning window;
#N canvas 0 0 450 300 (subpatch) 0;
#X array \$0-Hanning 2048 float 0;
#X coords 0 1 2047 0 200 140 1;
#X restore 929 400 graph;
#X obj 950 131 block~;
#X msg 1050 98 resize \$1;
#X floatatom 930 54 5 0 0 0 - - -;
#X obj 1050 131 s \$0-Hanning;
#X obj 957 191 / 4;
#X text 807 98 sample rate is 11kHz =>;
#X obj 83 297 bng 15 250 50 0 empty empty empty 17 7 0 10 -262144 -1
-1;
#X obj 82 326 metro 1000;
#X obj 93 70 tabreceive~ \$0-Hanning;
#X obj 31 88 *~;
#X msg 129 293 stop;
#X obj 17 239 rifft~;
#X msg 930 24 2048;
#X obj 247 145 bp~ 200 50;
#X obj 497 139 bp~ 2400 50;
#X obj 18 352 framp~;
#X obj 39 397 print~ frequencies;
#X obj 47 51 rzero~ 1;
#X obj 295 455 outlet;
#X obj 466 457 outlet;
#X obj 358 220 loadbang;
#X obj 530 196 loadbang;
#X obj 421 175 env~ 2048;
#X obj 499 173 env~ 2048;
#X obj 328 177 env~ 2048;
#X obj 247 177 env~ 2048;
#X msg 950 98 set \$1 4 1;
#X obj 929 -2 loadbang;
#X msg 387 325 clear;
#X obj 385 296 r reset_hist;
#X obj 328 144 bp~ 850 50;
#X obj 304 423 hist 200 850 16;
#X obj 479 422 hist 850 2400 30;
#X obj 415 60 hip~ 850;
#X obj 419 140 bp~ 850 50;
#X msg 514 220 1550;
#X msg 341 248 650;
#X obj 611 455 outlet;
#X obj 689 454 outlet;
#X obj 610 421 average;
#X obj 688 420 average;
#X text 610 471 f1 average;
#X text 688 473 f2 average;
#X text 294 478 f1 hist;
#X text 465 477 f2 hist;
#X obj 772 449 std_dev;
#X obj 850 450 std_dev;
#X obj 774 480 outlet;
#X obj 850 479 outlet;
#X text 776 501 f1 sd;
#X text 850 500 f2 sd;
#X connect 0 0 52 0;
#X connect 0 0 7 0;
#X connect 0 0 68 0;
#X connect 1 0 2 0;
#X connect 1 1 2 1;
#X connect 2 0 5 0;
#X connect 2 1 3 0;
#X connect 3 0 46 0;
#X connect 4 0 24 0;
#X connect 6 0 5 0;
#X connect 7 0 19 0;
#X connect 8 0 49 0;
#X connect 8 0 69 0;
#X connect 9 0 11 0;
#X connect 10 0 12 0;
#X connect 11 0 16 0;
#X connect 12 0 15 0;
#X connect 13 0 16 1;
#X connect 14 0 15 1;
#X connect 15 0 18 0;
#X connect 16 0 17 0;
#X connect 17 0 22 0;
#X connect 17 0 74 0;
#X connect 17 0 80 0;
#X connect 18 0 23 0;
#X connect 18 0 75 0;
#X connect 18 0 81 0;
#X connect 19 0 48 0;
#X connect 19 0 65 0;
#X connect 20 0 66 0;
#X connect 21 0 67 0;
#X connect 22 0 20 0;
#X connect 22 1 66 0;
#X connect 23 0 21 0;
#X connect 23 1 67 0;
#X connect 24 0 50 0;
#X connect 24 1 50 1;
#X connect 25 0 27 0;
#X connect 26 0 31 0;
#X connect 27 0 28 0;
#X connect 28 0 30 0;
#X connect 29 0 26 0;
#X connect 29 0 30 0;
#X connect 31 0 25 0;
#X connect 32 0 29 0;
#X connect 32 1 39 0;
#X connect 36 0 38 0;
#X connect 37 0 61 0;
#X connect 37 0 36 0;
#X connect 37 0 32 0;
#X connect 39 0 31 1;
#X connect 41 0 42 0;
#X connect 42 0 51 0;
#X connect 43 0 44 1;
#X connect 44 0 1 0;
#X connect 45 0 42 0;
#X connect 46 0 4 0;
#X connect 47 0 37 0;
#X connect 48 0 60 0;
#X connect 49 0 58 0;
#X connect 50 0 51 0;
#X connect 52 0 44 0;
#X connect 55 0 71 0;
#X connect 56 0 70 0;
#X connect 57 0 10 0;
#X connect 58 0 10 1;
#X connect 59 0 9 1;
#X connect 60 0 9 0;
#X connect 61 0 35 0;
#X connect 62 0 47 0;
#X connect 63 0 66 0;
#X connect 63 0 67 0;
#X connect 64 0 63 0;
#X connect 65 0 59 0;
#X connect 66 0 53 0;
#X connect 67 0 54 0;
#X connect 68 0 8 0;
#X connect 69 0 57 0;
#X connect 70 0 14 0;
#X connect 71 0 13 0;
#X connect 74 0 72 0;
#X connect 74 0 80 1;
#X connect 75 0 73 0;
#X connect 75 0 81 1;
#X connect 80 0 82 0;
#X connect 81 0 83 0;
#X restore 60 63 pd formantfinder;
#N canvas 228 236 779 432 voicingdetector 1;
#X obj 83 42 sigmund~;
#X floatatom 24 74 5 0 0 0 - - -;
#X obj 70 131 > 80;
#X obj 82 14 inlet~;
#X obj 97 276 outlet;
#X obj 43 101 mtof;
#X obj 25 278 outlet;
#X obj 319 277 outlet;
#X text 39 209 voiceless sounds;
#X text 218 196 voiced sounds;
#X obj 218 277 outlet;
#X text 27 298 average;
#X text 95 297 histogram;
#X text 220 298 average;
#X text 320 300 histogram;
#X text 119 127 human voice range starts at around 80Hz \, anything
below that is likely unvoiced;
#X text 150 43 sigmund~ outputs -1500 when it can't find a pitch. Voiceless
sounds have no pitch \, so detecting -1500 should be enough. To be
safe \, we detect anything less than normal human voice range.;
#X obj 147 19 dac~;
#X obj 417 277 outlet;
#X obj 164 276 outlet;
#X text 166 297 std-dev;
#X text 419 297 std-dev;
#X floatatom 116 87 5 0 0 0 - - -;
#X obj 21 132 < 80;
#X obj 171 106 > 60;
#X obj 37 184 &&;
#X obj 172 175 &&;
#X text 213 105 human voice range starts at around 60dB normally;
#X obj 24 239 duration_histogram;
#X obj 203 217 duration_histogram;
#X connect 0 0 1 0;
#X connect 0 1 22 0;
#X connect 1 0 5 0;
#X connect 2 0 26 0;
#X connect 3 0 0 0;
#X connect 3 0 17 0;
#X connect 5 0 23 0;
#X connect 5 0 2 0;
#X connect 22 0 24 0;
#X connect 23 0 25 0;
#X connect 24 0 25 1;
#X connect 24 0 26 1;
#X connect 25 0 28 0;
#X connect 26 0 29 0;
#X connect 28 0 6 0;
#X connect 28 1 19 0;
#X connect 28 2 4 0;
#X connect 29 0 10 0;
#X connect 29 1 18 0;
#X connect 29 2 7 0;
#X restore 207 58 pd voicingdetector;
#N canvas 0 0 450 300 (subpatch) 0;
#X array vcd_dist 10 float 3;
#A 0 0.176712 0.0205479 0.060274 0.0753425 0.0561644 0.0479452 0.0520548
0.0287671 0.0260274 0.0410959;
#X coords 0 1 10 0 200 140 1 0 0;
#X restore 15 181 graph;
#N canvas 0 41 450 300 (subpatch) 0;
#X array vl_dist 10 float 3;
#A 0 0.207365 0.0515581 0.11898 0.133144 0.098017 0.0345609 0.0577904
0.031728 0.0368272 0.0600567;
#X coords 0 1 10 0 200 140 1 0 0;
#X restore 379 181 graph;
#X obj 80 -21 adc~;
#X obj 206 -47 bng 15 250 50 0 empty empty empty 17 7 0 10 -262144
-1 -1;
#X obj 74 14 *~;
#X floatatom 34 -19 5 0 0 0 - - -;
#X text 58 -51 Microphone;
#X text 229 -48 Sound File;
#X msg 356 -17 \; pd dsp 1;
#X obj 455 -47 bng 15 250 50 0 empty empty empty 17 7 0 10 -262144
-1 -1;
#X msg 455 4 \; pd dsp 0;
#X text 478 -49 Stop;
#X obj 35 -50 tgl 15 0 empty empty empty 17 7 0 10 -262144 -1 -1 0
1;
#X floatatom 597 205 5 0 0 0 - - -;
#X floatatom 234 204 5 0 0 0 - - -;
#X msg 597 28 0;
#X obj 598 59 s reset;
#X obj 293 175 r reset;
#X obj 654 181 r reset;
#X obj 244 85 s vl_avg;
#X obj 354 84 s vcd_avg;
#X obj 227 174 r vcd_avg;
#X obj 591 180 r vl_avg;
#X obj 247 115 tabset vl_dist;
#X obj 401 111 tabset vcd_dist;
#X msg 657 -17 \; vcd_dist const 0 \;;
#X msg 657 27 \; vl_dist const 0 \;;
#X msg 784 29 \; f1_dist const 0 \;;
#X msg 785 -16 \; f2_dist const 0 \;;
#X floatatom 234 289 5 0 0 0 - - -;
#X obj 233 258 r reset;
#X obj 296 259 r vcd_sd;
#X floatatom 596 284 5 0 0 0 - - -;
#X obj 596 250 r reset;
#X obj 654 252 r vl_sd;
#X obj 297 84 s vl_sd;
#X obj 422 84 s vcd_sd;
#N canvas 0 0 450 300 (subpatch) 0;
#X array f1_dist 16 float 3;
#A 0 0.213853 0 0.0012987 0.0147186 0.05671 0.0900433 0.109957 0.0796537
0.0398268 0.0264069 0.0177489 0.0233766 0.0264069 0.0424242 0.04329
0.214286;
#X coords 0 1 16 0 200 140 1 0 0;
#X restore 14 370 graph;
#N canvas 0 0 450 300 (subpatch) 0;
#X array f2_dist 30 float 3;
#A 0 0.247186 0.00995671 0.012987 0.0108225 0.021645 0.0290043 0.0359307
0.0329004 0.0333333 0.0398268 0.0333333 0.0385281 0.0506494 0.0393939
0.0536797 0.0471861 0.0367965 0.0307359 0.0242424 0.0246753 0.017316
0.0151515 0.0125541 0.00735931 0.00822511 0.00822511 0.00606061 0.00562771
0.00562771 0.061039;
#X coords 0 1 30 0 200 140 1 0 0;
#X restore 380 375 graph;
#X obj 24 116 tabset f1_dist;
#X obj 125 116 tabset f2_dist;
#X obj 567 87 s reset_hist;
#X obj 537 -48 bng 15 250 50 0 empty empty empty 17 7 0 10 -262144
-1 -1;
#X text 556 -51 Reset;
#X obj 207 -12 open_file;
#X obj 17 89 s f1_avg;
#X obj 73 89 s f2_avg;
#X text 233 310 standard deviation;
#X text 593 307 standard deviation;
#X text 595 224 average;
#X text 229 223 average;
#X text 171 147 voiced durations;
#X text 526 144 voiceless durations;
#X floatatom 232 394 5 0 0 0 - - -;
#X obj 231 369 r f1_avg;
#X obj 296 369 r reset;
#X floatatom 600 399 5 0 0 0 - - -;
#X obj 600 374 r f2_avg;
#X obj 666 375 r reset;
#X text 184 343 formant 1;
#X text 555 347 formant 2;
#X obj 130 87 s f1_sd;
#X obj 177 89 s f2_sd;
#X floatatom 231 462 5 0 0 0 - - -;
#X obj 230 427 r f1_sd;
#X obj 295 426 r reset;
#X obj 601 431 r f2_sd;
#X obj 666 433 r reset;
#X floatatom 602 465 5 0 0 0 - - -;
#X connect 0 0 41 0;
#X connect 0 1 42 0;
#X connect 0 2 47 0;
#X connect 0 3 48 0;
#X connect 0 4 63 0;
#X connect 0 5 64 0;
#X connect 1 0 21 0;
#X connect 1 1 25 0;
#X connect 1 2 37 0;
#X connect 1 3 22 0;
#X connect 1 4 26 0;
#X connect 1 5 38 0;
#X connect 4 0 6 1;
#X connect 5 0 10 0;
#X connect 5 0 46 0;
#X connect 6 0 0 0;
#X connect 6 0 1 0;
#X connect 7 0 6 0;
#X connect 11 0 12 0;
#X connect 14 0 7 0;
#X connect 14 0 10 0;
#X connect 17 0 18 0;
#X connect 19 0 16 0;
#X connect 20 0 15 0;
#X connect 23 0 16 0;
#X connect 24 0 15 0;
#X connect 32 0 31 0;
#X connect 33 0 31 0;
#X connect 35 0 34 0;
#X connect 36 0 34 0;
#X connect 44 0 43 0;
#X connect 44 0 17 0;
#X connect 44 0 27 0;
#X connect 44 0 28 0;
#X connect 44 0 29 0;
#X connect 44 0 30 0;
#X connect 46 0 0 0;
#X connect 46 0 1 0;
#X connect 56 0 55 0;
#X connect 57 0 55 0;
#X connect 59 0 58 0;
#X connect 60 0 58 0;
#X connect 66 0 65 0;
#X connect 67 0 65 0;
#X connect 68 0 70 0;
#X connect 69 0 70 0;
