#N canvas 529 112 732 466 10;
#N canvas 130 137 1017 498 formantfinder 1;
#X obj 20 19 inlet~;
#X obj 19 143 rfft~;
#X obj 18 166 framp~;
#X obj 18 203 log~;
#X obj 17 239 ifft~;
#X obj 17 278 framp~;
#X obj 91 199 print~ frequencies;
#X obj 97 170 bng 15 250 50 0 empty empty empty 17 7 0 10 -262144 -1
-1;
#X obj 301 62 hip~ 200;
#X obj 415 93 lop~ 2400;
#X obj 247 145 bp~ 200 50;
#X obj 328 144 bp~ 900 50;
#X obj 247 177 env~;
#X obj 328 177 env~;
#X obj 419 140 bp~ 600 50;
#X obj 497 139 bp~ 2400 50;
#X obj 421 175 env~;
#X obj 499 174 env~;
#X obj 289 212 /;
#X obj 464 209 /;
#X floatatom 288 245 5 0 0 0 - - -;
#X floatatom 465 247 5 0 0 0 - - -;
#X floatatom 339 245 5 0 0 0 - - -;
#X msg 341 216 700;
#X floatatom 513 248 5 0 0 0 - - -;
#X msg 514 220 1800;
#X obj 482 274 *;
#X obj 310 273 *;
#X floatatom 310 308 5 0 0 0 - - -;
#X floatatom 482 308 5 0 0 0 - - -;
#X obj 300 94 lop~ 850;
#X obj 415 60 hip~ 850;
#X obj 288 434 tabset f1_dist;
#X obj 459 431 tabset f2_dist;
#N canvas 0 0 450 300 (subpatch) 0;
#X array f1_dist 100 float 3;
#A 0 0 0 0 0 0 0 0 0 0 0 0 0 0 0 0 0 0 0 0 0 0 0 0 0 0 0 0 0 0 0 0
0 0 0 0 0 0 0 0 0 0 0 0 0 0 0 0 0 0 0 0 0 0 0 0 0 0 0 0 0 0 0 0 0 0
0 0 0 0 0 0 0 0 0 0 0 0 0 0 0 0 0 0 0 0 0 0 0 0 0 0 0 0 0 0 0 0 0 0
0;
#X coords 0 1 99 -1 200 140 1;
#X restore 67 494 graph;
#N canvas 0 0 450 300 (subpatch) 0;
#X array f2_dist 100 float 3;
#A 0 0 0 0 0 0 0 0 0 0 0 0 0 0 0 0 0 0 0 0 0 0 0 0 0 0 0 0 0 0 0 0
0 0 0 0 0 0 0 0 0 0 0 0 0 0 0 0 0 0 0 0 0 0 0 0 0 0 0 0 0 0 0 0 0 0
0 0 0 0 0 0 0 0 0 0 0 0 0 0 0 0 0 0 0 0 0 0 0 0 0 0 0 0 0 0 0 0 0 0
0;
#X coords 0 1 99 -1 200 140 1;
#X restore 322 500 graph;
#X msg 253 370 relative;
#X msg 428 368 relative;
#X obj 320 342 t b f;
#X obj 473 339 t b f;
#X obj 304 398 hist 0 2500 30;
#X obj 479 395 hist 0 2500 30;
#X obj 17 313 rfft~;
#X obj 858 293 osc~;
#X obj 858 245 samplerate~;
#X obj 858 316 *~ -0.5;
#X obj 858 339 +~ 0.5;
#X obj 846 222 bng 15 250 50 0 empty empty empty 0 -6 0 8 -262144 -1
-1;
#X obj 846 364 tabwrite~ \$0-Hanning;
#X obj 858 269 /;
#X obj 846 174 t b f;
#X msg 779 253 \; pd dsp 1;
#X text 877 217 Create Hanning window;
#N canvas 0 0 450 300 (subpatch) 0;
#X array \$0-Hanning 2048 float 0;
#X coords 0 1 2047 0 200 140 1;
#X restore 617 317 graph;
#X obj 866 139 block~;
#X msg 966 106 resize \$1;
#X floatatom 846 62 5 0 0 0 - - -;
#X obj 966 139 s \$0-Hanning;
#X msg 866 106 set \$1 4 0.25;
#X obj 873 199 / 4;
#X text 723 106 sample rate is 11kHz =>;
#X msg 846 32 2048;
#X obj 83 297 bng 15 250 50 0 empty empty empty 17 7 0 10 -262144 -1
-1;
#X obj 82 326 metro 1000;
#X obj 15 358 framp~;
#X obj 42 403 print~;
#X obj 16 51 rzero~ 1;
#X obj 93 70 tabreceive~ \$0-Hanning;
#X obj 31 88 *~;
#X msg 129 293 stop;
#X connect 0 0 8 0;
#X connect 0 0 31 0;
#X connect 0 0 1 0;
#X connect 1 0 2 0;
#X connect 1 1 2 1;
#X connect 2 0 6 0;
#X connect 2 1 3 0;
#X connect 3 0 4 0;
#X connect 4 0 5 0;
#X connect 4 1 5 1;
#X connect 5 0 42 0;
#X connect 7 0 6 0;
#X connect 8 0 30 0;
#X connect 9 0 14 0;
#X connect 9 0 15 0;
#X connect 10 0 12 0;
#X connect 11 0 13 0;
#X connect 12 0 18 0;
#X connect 13 0 18 1;
#X connect 14 0 16 0;
#X connect 15 0 17 0;
#X connect 16 0 19 0;
#X connect 17 0 19 1;
#X connect 18 0 20 0;
#X connect 19 0 21 0;
#X connect 20 0 27 0;
#X connect 21 0 26 0;
#X connect 22 0 27 1;
#X connect 23 0 22 0;
#X connect 24 0 26 1;
#X connect 25 0 24 0;
#X connect 26 0 29 0;
#X connect 27 0 28 0;
#X connect 28 0 38 0;
#X connect 29 0 39 0;
#X connect 30 0 10 0;
#X connect 30 0 11 0;
#X connect 31 0 9 0;
#X connect 36 0 40 0;
#X connect 37 0 41 0;
#X connect 38 0 36 0;
#X connect 38 1 40 0;
#X connect 39 0 37 0;
#X connect 39 1 41 0;
#X connect 40 0 32 0;
#X connect 41 0 33 0;
#X connect 42 0 64 0;
#X connect 42 1 64 1;
#X connect 43 0 45 0;
#X connect 44 0 49 0;
#X connect 45 0 46 0;
#X connect 46 0 48 0;
#X connect 47 0 44 0;
#X connect 47 0 48 0;
#X connect 49 0 43 0;
#X connect 50 0 47 0;
#X connect 50 0 51 0;
#X connect 50 1 59 0;
#X connect 55 0 57 0;
#X connect 56 0 58 0;
#X connect 56 0 55 0;
#X connect 56 0 50 0;
#X connect 58 0 54 0;
#X connect 59 0 49 1;
#X connect 61 0 56 0;
#X connect 62 0 63 0;
#X connect 63 0 65 0;
#X connect 64 0 65 0;
#X connect 67 0 68 1;
#X connect 69 0 63 0;
#X restore 60 63 pd formantfinder;
#N canvas 227 234 779 432 voicingdetector 1;
#X obj 83 42 sigmund~;
#X floatatom 24 74 5 0 0 0 - - -;
#X obj 21 132 < 80;
#X obj 70 131 > 80;
#X obj 82 14 inlet~;
#X obj 132 276 outlet;
#X obj 43 101 mtof;
#X obj 25 278 outlet;
#X obj 322 277 outlet;
#X text 39 209 voiceless sounds;
#X text 218 196 voiced sounds;
#X obj 24 239 duration_histogram;
#X obj 203 217 duration_histogram;
#X obj 221 277 outlet;
#X text 27 298 average;
#X text 130 297 histogram;
#X text 223 298 average;
#X text 323 300 histogram;
#X text 118 124 human voice range starts at around 80Hz \, anything
below that is likely unvoiced;
#X text 150 43 sigmund~ outputs -1500 when it can't find a pitch. Voiceless
sounds have no pitch \, so detecting -1500 should be enough. To be
safe \, we detect anything less than normal human voice range.;
#X obj 147 19 dac~;
#X connect 0 0 1 0;
#X connect 1 0 6 0;
#X connect 2 0 11 0;
#X connect 3 0 12 0;
#X connect 4 0 0 0;
#X connect 4 0 20 0;
#X connect 6 0 2 0;
#X connect 6 0 3 0;
#X connect 11 0 7 0;
#X connect 11 1 5 0;
#X connect 12 0 13 0;
#X connect 12 1 8 0;
#X restore 207 58 pd voicingdetector;
#N canvas 0 0 450 300 (subpatch) 0;
#X array vcd_dist 10 float 3;
#A 0 0 0 0 0 0 0 0 0 0 0;
#X coords 0 1 10 -1 200 140 1 0 0;
#X restore 15 181 graph;
#N canvas 0 41 450 300 (subpatch) 0;
#X array vl_dist 10 float 3;
#A 0 0 0 0 0 0 0 0 0 0 0;
#X coords 0 1 10 -1 200 140 1 0 0;
#X restore 379 181 graph;
#X obj 80 -21 adc~;
#X obj 206 -47 bng 15 250 50 0 empty empty empty 17 7 0 10 -262144
-1 -1;
#X obj 74 14 *~;
#X floatatom 34 -19 5 0 0 0 - - -;
#X text 58 -51 Microphone;
#X text 229 -48 Sound File;
#X obj 356 -45 bng 15 250 50 0 empty empty empty 17 7 0 10 -262144
-1 -1;
#X msg 356 5 \; pd dsp 1;
#X obj 455 -47 bng 15 250 50 0 empty empty empty 17 7 0 10 -262144
-1 -1;
#X msg 455 4 \; pd dsp 0;
#X text 377 -46 Start;
#X text 478 -49 Stop;
#X obj 35 -50 tgl 15 0 empty empty empty 17 7 0 10 -262144 -1 -1 0
1;
#X floatatom 591 178 5 0 0 0 - - -;
#X floatatom 230 179 5 0 0 0 - - -;
#X msg 534 10 0;
#X obj 207 -12 open_file;
#X text 589 197 voiceless duration average;
#X text 228 198 voiced duration average;
#X obj 535 41 s reset;
#X obj 292 150 r reset;
#X obj 648 154 r reset;
#X obj 208 84 s vl_avg;
#X obj 279 84 s vcd_avg;
#X obj 226 149 r vcd_avg;
#X obj 585 153 r vl_avg;
#X obj 210 113 tabset vl_dist;
#X obj 337 110 tabset vcd_dist;
#X msg 594 -35 \; vcd_dist const 0 \;;
#X msg 594 9 \; vl_dist const 0 \;;
#X msg 593 56 \; f1_dist const 0 \;;
#X msg 592 103 \; f2_dist const 0 \;;
#X connect 1 0 26 0;
#X connect 1 1 30 0;
#X connect 1 2 27 0;
#X connect 1 3 31 0;
#X connect 4 0 6 1;
#X connect 5 0 20 0;
#X connect 6 0 0 0;
#X connect 6 0 1 0;
#X connect 7 0 6 0;
#X connect 10 0 11 0;
#X connect 12 0 13 0;
#X connect 12 0 19 0;
#X connect 12 0 32 0;
#X connect 12 0 33 0;
#X connect 12 0 34 0;
#X connect 12 0 35 0;
#X connect 16 0 7 0;
#X connect 19 0 23 0;
#X connect 20 0 0 0;
#X connect 20 0 1 0;
#X connect 24 0 18 0;
#X connect 25 0 17 0;
#X connect 28 0 18 0;
#X connect 29 0 17 0;
