#N canvas 1082 362 544 495 10;
#X obj 15 39 change;
#X obj 15 79 sel 1 0;
#X obj 15 115 realtime;
#X floatatom 15 145 5 0 0 0 - - -;
#X text 122 73 when "1" (i.e. conditional true) \, reset and start
timing when "0" (i.e. conditional false) \, stop timing;
#X obj 79 240 t b f;
#X msg 120 300 relative;
#X msg 185 301 clear;
#X obj 15 240 average;
#X obj 15 9 inlet;
#X obj 16 366 outlet;
#X obj 117 368 outlet;
#X obj 80 139 metro 100;
#X obj 81 9 loadbang;
#X obj 145 10 r reset;
#X obj 65 368 outlet;
#X obj 15 175 / 1000;
#X obj 110 333 hist 0 1 20;
#X obj 52 335 std_dev;
#X obj 184 272 r reset_hist;
#X text 147 137 get averages every tenth of a second to get more stable
results;
#X connect 0 0 1 0;
#X connect 1 0 2 0;
#X connect 1 1 2 1;
#X connect 2 0 3 0;
#X connect 3 0 16 0;
#X connect 5 0 6 0;
#X connect 5 1 17 0;
#X connect 6 0 17 0;
#X connect 7 0 17 0;
#X connect 8 0 10 0;
#X connect 8 0 18 1;
#X connect 9 0 0 0;
#X connect 12 0 8 0;
#X connect 13 0 12 0;
#X connect 14 0 12 0;
#X connect 16 0 5 0;
#X connect 16 0 8 0;
#X connect 16 0 18 0;
#X connect 17 0 11 0;
#X connect 18 0 15 0;
#X connect 19 0 7 0;
