#N canvas 40 315 450 300 10;
#X obj 88 41 openpanel;
#X msg 88 84 open \$1;
#X obj 88 120 readsf~;
#X msg 15 70 1;
#X msg 49 69 0;
#X obj 88 8 inlet;
#X obj 87 165 outlet~;
#X text 124 8;
#X connect 0 0 1 0;
#X connect 1 0 2 0;
#X connect 1 0 3 0;
#X connect 2 0 6 0;
#X connect 3 0 2 0;
#X connect 4 0 2 0;
#X connect 5 0 0 0;
