#N canvas 48 170 693 498 10;
#X obj 35 31 adc~;
#X obj 35 73 *~;
#X obj 87 38 tabreceive~ hann;
#X obj 35 126 cartopol~;
#X obj 36 155 log~ 10;
#X obj 39 99 rfft~;
#X obj 37 184 rifft~;
#X obj 39 236 /~;
#X floatatom 73 209 5 2047 2048 0 - - -;
#X obj 38 268 pow~ 10;
#X obj 39 302 rifft~;
#X obj 38 355 /~;
#X floatatom 84 331 5 3071 3072 0 - - -;
#X obj 44 390 *~;
#X obj 91 367 tabreceive~ hann;
#X obj 44 430 print~;
#N canvas 0 0 450 300 (subpatch) 0;
#X array hann 100 float 3;
#A 0 0 0 0 0 0 0 0 0 0 0 0 0 0 0 0 0 0 0 0 0 0 0 0 0 0 0 0 0 0 0 0
0 0 0 0 0 0 0 0 0 0 0 0 0 0 0 0 0 0 0 0 0 0 0 0 0 0 0 0 0 0 0 0 0 0
0 0 0 0 0 0 0 0 0 0 0 0 0 0 0 0 0 0 0 0 0 0 0 0 0 0 0 0 0 0 0 0 0 0
0;
#X coords 0 1 99 -1 200 140 1;
#X restore 468 296 graph;
#X obj 388 254 block~;
#X msg 384 325 0;
#X obj 299 373 osc~;
#X obj 299 325 samplerate~;
#X obj 299 396 *~ -0.5;
#X obj 299 419 +~ 0.5;
#X obj 287 302 bng 15 250 50 0 empty empty empty 0 -6 0 8 -262144 -1
-1;
#X obj 299 349 /;
#X obj 287 254 t b f;
#X msg 220 333 \; pd dsp 1;
#X text 318 297 Create Hanning window;
#X obj 314 278 / 4;
#X obj 383 30 loadbang;
#X floatatom 383 177 5 0 0 0 - - -;
#X text 417 64 <= default;
#X msg 317 65 \; pd dsp 1;
#X msg 383 65 8192;
#X msg 383 214 set \$1 4 1;
#X text 259 179;
#X msg 479 203 resize \$1;
#X obj 287 444 tabwrite~ hann;
#X obj 479 236 s hann;
#X connect 0 0 1 0;
#X connect 1 0 5 0;
#X connect 2 0 1 1;
#X connect 3 0 4 0;
#X connect 4 0 6 0;
#X connect 5 0 3 0;
#X connect 6 0 7 0;
#X connect 7 0 9 0;
#X connect 8 0 7 1;
#X connect 9 0 10 0;
#X connect 10 0 11 0;
#X connect 11 0 13 0;
#X connect 12 0 11 1;
#X connect 13 0 15 0;
#X connect 14 0 13 1;
#X connect 18 0 19 1;
#X connect 19 0 21 0;
#X connect 20 0 24 0;
#X connect 21 0 22 0;
#X connect 22 0 37 0;
#X connect 23 0 20 0;
#X connect 23 0 18 0;
#X connect 23 0 37 0;
#X connect 24 0 19 0;
#X connect 25 0 23 0;
#X connect 25 0 26 0;
#X connect 25 1 28 0;
#X connect 28 0 24 1;
#X connect 29 0 33 0;
#X connect 29 0 32 0;
#X connect 30 0 34 0;
#X connect 30 0 25 0;
#X connect 30 0 36 0;
#X connect 33 0 30 0;
#X connect 34 0 17 0;
#X connect 36 0 38 0;
