#N canvas 0 41 450 300 10;
#X obj 65 16 inlet;
#X obj 95 59 -;
#X floatatom 95 91 5 0 0 0 - - -;
#X obj 95 126 pow 2;
#X obj 95 159 average;
#X obj 95 190 sqrt;
#X floatatom 95 217 5 0 0 0 - - -;
#X obj 129 15 inlet;
#X obj 95 257 outlet;
#X text 60 -2 values;
#X text 123 -3 averages;
#X connect 0 0 1 0;
#X connect 1 0 2 0;
#X connect 2 0 3 0;
#X connect 3 0 4 0;
#X connect 4 0 5 0;
#X connect 5 0 6 0;
#X connect 6 0 8 0;
#X connect 7 0 1 1;
