#N canvas -4 41 1366 685 10;
#X obj 88 91 sigmund~;
#X floatatom 29 123 5 0 0 0 - - -;
#X obj 255 -181 bng 15 250 50 0 empty empty empty 17 7 0 10 -262144
-1 -1;
#X obj 255 -154 openpanel;
#X msg 255 -111 open \$1;
#X obj 255 -75 readsf~;
#X obj 168 -54 dac~;
#X msg 182 -125 1;
#X msg 216 -126 0;
#N canvas 0 0 450 300 (subpatch) 0;
#X array voiceless_distribution 10 float 3;
#A 0 0 0 0.5 0 0 0 0 0 0 0;
#X coords 0 1 10 -1 200 140 1 0 0;
#X restore 713 45 graph;
#X obj -12 240 tabset voiceless_distribution;
#X obj 26 165 < 80;
#X obj 76 160 > 80;
#N canvas 0 0 450 300 (subpatch) 0;
#X array voiced_distribution 10 float 3;
#A 0 0.25 0.5 0.25 0 0 0 0 0 0 0;
#X coords 0 1 10 -1 200 140 1 0 0;
#X restore 1006 46 graph;
#X obj 205 237 tabset voiced_distribution;
#X obj 98 198 frequency_timer;
#X obj -13 197 frequency_timer;
#X connect 0 0 1 0;
#X connect 1 0 11 0;
#X connect 1 0 12 0;
#X connect 2 0 3 0;
#X connect 3 0 4 0;
#X connect 4 0 5 0;
#X connect 5 0 6 0;
#X connect 5 0 6 1;
#X connect 5 0 0 0;
#X connect 7 0 5 0;
#X connect 8 0 5 0;
#X connect 11 0 16 0;
#X connect 12 0 15 0;
#X connect 15 0 14 0;
#X connect 16 0 10 0;
