#N canvas 0 27 1356 690 10;
#X obj 37 43 loadbang;
#X msg 36 82 \; pd dsp 1;
#X obj 156 225 metro 100;
#X obj 153 72 bng 15 250 50 0 empty empty empty 17 7 0 10 -262144 -1
-1;
#X obj 407 216 fiddle~ 1024 1 3 3;
#X obj 552 389 unpack;
#X obj 551 316 route 1 2 3;
#X obj 617 389 unpack;
#X connect 0 0 1 0;
#X connect 3 0 2 0;
#X connect 4 4 6 0;
#X connect 6 0 5 0;
#X connect 6 1 7 0;
