#N canvas -4 41 1366 685 10;
#X obj 88 91 sigmund~;
#X floatatom 29 123 5 0 0 0 - - -;
#X obj 22 202 change;
#X obj 22 242 sel 1 0;
#X obj 21 284 realtime;
#X floatatom 21 329 5 0 0 0 - - -;
#X text 90 249 when "1" (i.e. conditional true) \, reset and start
timing when "0" (i.e. conditional false) \, stop timing;
#X obj 108 -79 bng 15 250 50 0 empty empty empty 17 7 0 10 -262144
-1 -1;
#X obj 108 -52 openpanel;
#X msg 108 -9 open \$1;
#X obj 108 27 readsf~;
#X obj 21 48 dac~;
#X msg 35 -23 1;
#X msg 69 -24 0;
#N canvas 0 0 450 300 (subpatch) 0;
#X array voiceless_distribution 10 float 3;
#A 0 0.159722 0.0763889 0.0520833 0.0451389 0.00347222 0.0833333 0.142361
0.0243056 0.0416667 0.03125;
#X coords 0 1 10 -1 200 140 1 0 0;
#X restore 259 -36 graph;
#X obj 195 367 hist 0 1000 100;
#X obj 195 416 tabset voiceless_distribution;
#X obj 117 329 t b f;
#X msg 58 355 relative;
#X msg 306 305 clear;
#X obj 26 165 < 80;
#X obj 456 189 change;
#X obj 456 229 sel 1 0;
#X obj 455 271 realtime;
#X floatatom 455 316 5 0 0 0 - - -;
#X text 524 236 when "1" (i.e. conditional true) \, reset and start
timing when "0" (i.e. conditional false) \, stop timing;
#X obj 629 354 hist 0 1000 100;
#X obj 551 316 t b f;
#X msg 492 342 relative;
#X msg 740 292 clear;
#X obj 75 165 > 80;
#N canvas 0 0 450 300 (subpatch) 0;
#X array voiced_distribution 10 float 3;
#A 0 0.6875 0.0625 0.125 0 0 0.0625 0.0625 0 0 0;
#X coords 0 1 10 -1 200 140 1 0 0;
#X restore 495 -32 graph;
#X obj 629 403 tabset voiced_distribution;
#X connect 0 0 1 0;
#X connect 1 0 20 0;
#X connect 1 0 30 0;
#X connect 2 0 3 0;
#X connect 3 0 4 0;
#X connect 3 1 4 1;
#X connect 4 0 5 0;
#X connect 5 0 17 0;
#X connect 7 0 8 0;
#X connect 8 0 9 0;
#X connect 9 0 10 0;
#X connect 10 0 11 0;
#X connect 10 0 11 1;
#X connect 10 0 0 0;
#X connect 12 0 10 0;
#X connect 13 0 10 0;
#X connect 15 0 16 0;
#X connect 17 0 18 0;
#X connect 17 1 15 0;
#X connect 18 0 15 0;
#X connect 19 0 15 0;
#X connect 20 0 2 0;
#X connect 21 0 22 0;
#X connect 22 0 23 0;
#X connect 22 1 23 1;
#X connect 23 0 24 0;
#X connect 24 0 27 0;
#X connect 26 0 32 0;
#X connect 27 0 28 0;
#X connect 27 1 26 0;
#X connect 28 0 26 0;
#X connect 29 0 26 0;
#X connect 30 0 21 0;
