#N canvas 679 41 683 685 10;
#X obj 74 39 adc~;
#X obj 72 100 *~;
#X obj 71 143 rfft~;
#X obj 69 182 cartopol~;
#X obj 66 222 log~ 10;
#X obj 63 260 rfft~;
#X obj 61 300 rifft~;
#X obj 60 351 /~;
#X floatatom 104 326 5 4095 4096 0 - - -;
#X obj 62 389 pow~ 10;
#X obj 67 455 print~;
#X obj 135 410 bng 15 250 50 0 empty empty empty 17 7 0 10 -262144
-1 -1;
#X obj 455 15 loadbang;
#X obj 538 97 s sync;
#X obj 538 41 bng 15 250 50 0 empty empty empty 17 7 0 10 -262144 -1
-1;
#X obj 538 69 metro 25;
#X obj 467 379 osc~;
#X obj 467 331 samplerate~;
#X obj 467 402 *~ -0.5;
#X obj 467 425 +~ 0.5;
#X obj 455 308 bng 15 250 50 0 empty empty empty 0 -6 0 8 -262144 -1
-1;
#X obj 455 450 tabwrite~ \$0-Hanning;
#X obj 467 355 /;
#X obj 455 260 t b f;
#X msg 388 339 \; pd dsp 1;
#X text 486 303 Create Hanning window;
#N canvas 0 0 450 300 (subpatch) 0;
#X array \$0-Hanning 2048 float 0;
#X coords 0 1 2047 0 200 140 1;
#X restore 226 403 graph;
#X obj 475 225 block~;
#X msg 575 192 resize \$1;
#X floatatom 455 155 5 0 0 0 - - -;
#X obj 575 225 s \$0-Hanning;
#X msg 475 192 set \$1 4 0.25;
#X obj 482 285 / 4;
#X text 487 122 <= set window/block size;
#X text 332 192 sample rate is 11kHz =>;
#X msg 455 122 4096;
#X obj 131 70 tabreceive~ \$0-Hanning;
#X connect 0 0 1 0;
#X connect 1 0 2 0;
#X connect 2 0 3 0;
#X connect 2 1 3 1;
#X connect 3 0 4 0;
#X connect 4 0 5 0;
#X connect 5 0 6 0;
#X connect 6 0 7 0;
#X connect 7 0 9 0;
#X connect 8 0 7 1;
#X connect 9 0 10 0;
#X connect 11 0 10 0;
#X connect 12 0 15 0;
#X connect 12 0 35 0;
#X connect 14 0 15 0;
#X connect 15 0 13 0;
#X connect 16 0 18 0;
#X connect 17 0 22 0;
#X connect 18 0 19 0;
#X connect 19 0 21 0;
#X connect 20 0 17 0;
#X connect 20 0 21 0;
#X connect 22 0 16 0;
#X connect 23 0 20 0;
#X connect 23 0 24 0;
#X connect 23 1 32 0;
#X connect 28 0 30 0;
#X connect 29 0 31 0;
#X connect 29 0 28 0;
#X connect 29 0 23 0;
#X connect 31 0 27 0;
#X connect 32 0 22 1;
#X connect 35 0 29 0;
#X connect 36 0 1 1;
